<?xml version="1.0" standalone="no"?>
<!DOCTYPE svg PUBLIC "-//W3C//DTD SVG 20010904//EN"
 "http://www.w3.org/TR/2001/REC-SVG-20010904/DTD/svg10.dtd">
<svg version="1.0" xmlns="http://www.w3.org/2000/svg"
 width="1200.000000pt" height="991.000000pt" viewBox="0 0 1200.000000 991.000000"
 preserveAspectRatio="xMidYMid meet">
<metadata>
Created by potrace 1.16, written by Peter Selinger 2001-2019
</metadata>
<g transform="translate(0.000000,991.000000) scale(0.100000,-0.100000)"
fill="#000000" stroke="none">
<path d="M5975 9568 c-3 -13 -4 -219 -3 -458 l3 -435 28 -3 27 -3 -2 458 -3
458 -22 3 c-16 2 -24 -3 -28 -20z"/>
<path d="M4990 9252 c0 -10 82 -126 183 -258 100 -131 222 -292 272 -358 49
-65 96 -121 103 -124 8 -2 20 2 28 10 14 14 -1 35 -492 676 -55 72 -94 94 -94
54z"/>
<path d="M6834 9088 c-471 -619 -426 -554 -401 -571 22 -14 28 -8 301 351 153
201 279 373 280 381 1 9 -8 17 -20 19 -16 2 -49 -35 -160 -180z"/>
<path d="M5684 8907 c-3 -9 12 -73 33 -144 38 -126 50 -145 81 -124 19 12 -67
274 -91 279 -9 2 -20 -3 -23 -11z"/>
<path d="M6275 8908 c-27 -80 -84 -263 -82 -264 1 -1 13 -5 27 -9 25 -6 26 -3
63 118 43 145 45 167 17 167 -11 0 -23 -6 -25 -12z"/>
<path d="M5905 8420 c-85 -189 -92 -200 -120 -205 -42 -7 -376 -45 -398 -45
-10 0 -17 -4 -15 -9 2 -5 73 -73 158 -152 85 -78 156 -150 158 -160 2 -10 -16
-109 -39 -219 -23 -110 -39 -203 -36 -206 3 -4 89 42 191 100 102 58 191 106
197 106 7 0 46 -20 88 -44 193 -111 293 -166 300 -166 5 0 -9 82 -30 183 -60
282 -63 249 34 335 152 135 242 220 237 225 -3 3 -95 14 -205 26 -110 12 -209
26 -220 30 -14 6 -48 69 -109 205 -49 108 -92 196 -95 196 -4 0 -47 -90 -96
-200z m199 -142 c30 -65 58 -118 63 -118 30 -1 335 -39 339 -42 2 -3 -54 -58
-126 -123 -71 -64 -130 -118 -130 -119 0 -2 16 -81 35 -176 19 -95 35 -175 35
-178 0 -4 -22 8 -216 118 l-100 57 -155 -88 c-84 -48 -155 -86 -157 -85 -2 3
52 288 63 331 5 16 -22 45 -125 139 -72 65 -128 121 -126 124 3 2 78 13 167
23 89 10 168 20 174 23 6 2 45 77 85 166 l74 163 23 -49 c12 -27 47 -102 77
-166z"/>
<path d="M5993 8375 c-5 -11 -33 -72 -62 -136 l-52 -116 -117 -12 c-200 -20
-193 -7 -68 -125 l109 -101 -30 -143 c-16 -78 -27 -142 -24 -142 3 0 62 32
130 70 68 39 125 70 127 70 1 0 57 -32 124 -70 68 -39 125 -68 127 -66 3 3 -7
67 -23 143 l-28 138 65 61 c35 33 84 78 107 99 54 48 54 47 -122 65 l-128 13
-32 71 c-17 39 -45 100 -62 136 -27 57 -32 63 -41 45z m124 -288 c10 -3 47 -8
83 -12 36 -3 78 -9 95 -12 l29 -6 -83 -76 -83 -77 21 -103 c11 -57 21 -107 21
-112 0 -4 -43 16 -94 46 -52 30 -98 55 -102 55 -4 0 -47 -23 -96 -51 -49 -28
-92 -49 -94 -46 -3 3 4 52 15 109 l22 103 -83 76 -83 76 30 6 c17 3 59 9 95
12 36 4 73 9 84 12 16 4 57 81 98 183 10 23 14 18 58 -77 30 -63 55 -103 67
-106z"/>
<path d="M5187 8566 c-7 -17 0 -23 132 -121 103 -76 104 -77 123 -57 19 19 18
20 -98 106 -115 85 -147 99 -157 72z"/>
<path d="M6665 8499 c-60 -44 -111 -84 -113 -88 -1 -4 4 -15 12 -26 13 -18 20
-14 132 69 67 50 119 96 119 105 0 37 -43 20 -150 -60z"/>
<path d="M4440 8500 c0 -10 8 -23 18 -28 9 -5 208 -74 441 -152 404 -137 424
-142 437 -125 8 11 11 22 7 26 -11 11 -864 299 -885 299 -11 0 -18 -8 -18 -20z"/>
<path d="M7405 8479 c-60 -21 -253 -86 -427 -146 -261 -88 -318 -111 -318
-126 0 -9 6 -20 13 -23 8 -3 211 62 453 144 378 127 439 151 439 168 0 30 -37
26 -160 -17z"/>
<path d="M5000 7985 c-24 -29 0 -35 151 -35 l149 0 0 25 0 25 -144 0 c-113 0
-146 -3 -156 -15z"/>
<path d="M6707 7994 c-4 -4 -7 -16 -7 -26 0 -17 10 -18 153 -16 144 3 152 4
152 23 0 19 -8 20 -146 23 -80 1 -148 -1 -152 -4z"/>
<path d="M6676 7763 c-3 -4 -6 -16 -6 -28 0 -20 25 -31 243 -105 133 -46 323
-112 421 -147 199 -70 229 -75 224 -41 -3 24 34 10 -568 217 -102 35 -213 74
-247 86 -34 13 -64 21 -67 18z"/>
<path d="M4870 7611 c-359 -125 -425 -151 -425 -167 0 -33 35 -27 210 35 94
33 282 98 419 145 137 48 252 89 256 91 14 9 -2 45 -19 44 -9 0 -207 -67 -441
-148z"/>
<path d="M5294 7480 c-115 -86 -142 -120 -102 -128 16 -3 248 163 248 177 0 3
-7 14 -14 23 -12 16 -23 10 -132 -72z"/>
<path d="M6570 7545 c-15 -19 -24 -10 113 -114 104 -80 138 -94 145 -60 3 15
-213 189 -235 189 -6 0 -16 -7 -23 -15z"/>
<path d="M5290 7044 c-159 -213 -265 -363 -265 -377 0 -59 39 -16 304 338 226
303 271 368 261 380 -7 8 -18 15 -24 15 -6 0 -130 -160 -276 -356z"/>
<path d="M6416 7387 c-16 -12 4 -43 256 -378 150 -200 280 -364 288 -364 45 0
12 52 -245 395 -146 195 -269 356 -273 358 -4 1 -16 -4 -26 -11z"/>
<path d="M5702 7171 c-23 -70 -42 -134 -42 -143 0 -26 29 -30 44 -5 20 32 88
245 82 256 -3 5 -14 11 -24 13 -16 5 -25 -13 -60 -121z"/>
<path d="M6231 7289 c-12 -5 -21 -15 -19 -22 3 -6 22 -64 43 -127 20 -63 43
-121 50 -129 17 -17 35 -6 35 23 0 18 -74 254 -82 261 -2 2 -14 -1 -27 -6z"/>
<path d="M5977 7243 c-4 -3 -7 -147 -7 -320 l0 -313 30 0 30 0 0 320 0 320
-23 0 c-13 0 -27 -3 -30 -7z"/>
<path d="M4122 4298 c3 -2144 4 -2276 21 -2333 61 -208 161 -314 322 -344 38
-7 282 -11 706 -11 718 0 696 2 791 -65 45 -33 46 -33 64 -14 9 10 42 31 73
47 l56 27 685 5 c670 5 686 5 742 26 115 44 183 109 238 226 63 135 60 -14 60
2456 l0 2252 -1880 0 -1880 0 2 -2272z m3686 12 c2 -1910 0 -2186 -13 -2265
-27 -158 -100 -271 -210 -326 l-50 -24 -675 -6 c-510 -4 -685 -9 -715 -18 -54
-18 -109 -46 -124 -65 -12 -14 -17 -13 -46 10 -19 14 -58 35 -87 47 -53 22
-59 22 -718 23 -727 0 -723 0 -806 59 -97 69 -148 182 -163 355 -5 52 -6 1061
-3 2243 l5 2147 1801 -2 1801 -3 3 -2175z"/>
<path d="M4310 5260 l0 -1120 566 0 566 0 -6 -22 c-3 -13 -6 -33 -6 -45 l0
-23 -560 0 -560 0 0 -967 c0 -1086 -1 -1064 67 -1162 26 -37 56 -64 93 -85
l55 -31 655 -5 c651 -5 655 -5 710 -27 30 -13 56 -23 58 -23 1 0 2 394 2 875
l0 875 50 0 50 0 0 -875 c0 -481 1 -875 3 -875 1 0 27 10 57 23 55 22 59 22
710 27 l655 5 51 27 c63 33 107 84 137 158 l22 55 3 1003 3 1002 -561 0 -560
0 0 29 c0 16 -3 36 -6 45 -6 14 48 16 560 16 l566 0 0 1120 0 1120 -820 0
-820 0 0 -865 0 -865 -27 0 c-16 0 -38 -3 -50 -6 l-23 -6 0 871 0 871 -820 0
-820 0 0 -1120z m1590 221 l0 -859 -52 -12 c-192 -46 -344 -182 -398 -358
l-18 -57 -536 -3 -536 -2 0 1075 0 1075 770 0 770 0 0 -859z m1750 -216 l0
-1075 -546 2 -546 3 -22 71 c-55 172 -223 330 -399 374 l-47 12 0 844 0 844
780 0 780 0 0 -1075z m-1647 -675 c-4 -16 0 -20 22 -20 23 0 26 3 22 21 -5 20
-3 21 46 15 142 -18 313 -151 382 -297 81 -173 67 -375 -37 -537 -119 -184
-343 -270 -566 -217 -170 40 -309 167 -370 338 -34 97 -36 239 -4 343 51 166
176 283 351 329 48 12 66 13 77 4 22 -18 17 -24 -38 -37 -122 -28 -246 -120
-296 -218 -56 -111 -72 -291 -34 -392 64 -169 204 -285 377 -315 167 -29 378
67 461 210 92 156 86 378 -15 530 -47 70 -99 113 -183 154 -59 28 -68 29 -141
23 -68 -5 -76 -4 -71 10 3 9 -1 27 -10 40 -12 18 -12 26 -3 29 25 11 35 7 30
-13z m-56 -102 c15 -7 30 -13 32 -15 6 -4 -351 -593 -359 -593 -17 0 -42 115
-42 190 1 124 36 220 109 301 47 52 83 77 152 105 65 27 71 28 108 12z m241
-28 c82 -39 155 -112 195 -198 27 -58 32 -80 35 -168 3 -74 0 -117 -12 -158
-9 -31 -20 -56 -24 -56 -7 0 -362 582 -362 594 0 5 38 12 80 14 14 1 53 -11
88 -28z m-11 -337 c-2 -1 -25 5 -52 13 -69 21 -178 21 -243 0 -29 -10 -55 -16
-57 -14 -3 3 114 203 162 277 15 23 16 21 104 -125 48 -81 87 -149 86 -151z
m-86 -40 c23 -61 -24 -128 -90 -128 -45 0 -69 17 -87 62 -10 24 -11 39 -3 62
l11 31 79 0 c77 0 80 -1 90 -27z m-252 -118 c41 -25 90 -48 109 -51 54 -10
126 3 183 33 28 15 66 36 83 45 37 19 39 17 85 -64 l32 -58 -331 0 c-182 0
-329 3 -327 8 25 47 80 132 85 132 4 0 40 -20 81 -45z m511 -144 c0 -15 -105
-108 -146 -129 -118 -60 -252 -67 -358 -19 -72 33 -144 85 -174 126 l-23 31
351 0 c192 0 350 -4 350 -9z m570 -212 c15 -27 12 -67 -6 -99 -20 -33 -13 -60
16 -60 11 0 20 -7 20 -15 0 -8 -9 -15 -21 -15 -11 0 -28 -4 -37 -9 -20 -10
-102 7 -114 24 -15 20 -8 93 11 116 17 22 19 22 35 6 22 -21 30 -21 51 0 12
11 15 26 12 49 -4 26 -2 32 9 27 8 -3 19 -14 24 -24z m-82 -242 c9 -7 12 -73
12 -269 l0 -259 -57 8 c-65 9 -148 10 -208 3 l-40 -5 -3 226 -2 227 37 7 c20
3 70 24 110 45 74 40 116 44 151 17z m222 -23 c30 -18 72 -36 93 -40 l37 -6 0
-227 0 -226 -150 0 -150 0 0 262 0 262 33 10 c43 12 71 5 137 -35z m-552 -315
c2 -205 1 -217 -17 -222 -16 -4 -19 3 -25 47 -8 70 -8 381 1 390 4 4 14 5 23
4 13 -3 15 -34 18 -219z m760 -2 c2 -212 2 -217 -18 -217 -19 0 -20 6 -20 221
0 205 1 220 18 217 15 -3 17 -23 20 -221z m-2003 106 l24 -28 -51 -44 c-28
-25 -63 -62 -78 -82 l-27 -38 -32 20 c-37 22 -36 37 7 102 26 40 97 97 119 97
8 0 25 -12 38 -27z m119 -156 c-11 -19 -113 -127 -121 -127 -3 0 -24 14 -47
32 -22 17 -43 33 -45 34 -8 7 68 99 103 125 l40 29 39 -39 c29 -28 37 -43 31
-54z m90 -49 c22 -17 43 -33 45 -35 9 -6 -65 -106 -98 -133 l-38 -29 -43 44
-43 44 63 70 c35 39 65 71 68 71 2 0 23 -14 46 -32z m124 -86 c23 -18 23 -19
7 -60 -17 -42 -115 -142 -139 -142 -7 0 -22 13 -33 29 l-22 28 50 49 c28 27
59 64 70 82 23 37 34 39 67 14z m827 -68 c11 -16 20 -16 126 0 155 22 492 22
635 0 58 -9 103 -20 102 -24 -2 -4 -40 -41 -85 -83 -50 -47 -91 -77 -104 -77
-12 0 -133 25 -268 55 -135 29 -291 64 -346 75 -148 31 -142 29 -109 51 35 23
34 23 49 3z m971 -37 c-4 -24 -38 -64 -131 -157 l-125 -125 0 51 0 50 127 118
c70 65 129 112 131 106 2 -6 1 -26 -2 -43z m-724 -97 c150 -33 307 -68 348
-78 l75 -17 3 -59 3 -58 -34 6 c-19 3 -184 46 -368 94 l-334 88 -3 42 c-3 36
0 42 17 42 11 0 143 -27 293 -60z m804 50 c8 0 14 -4 14 -9 0 -6 -69 -91 -154
-189 l-155 -180 -123 35 c-598 166 -837 237 -832 244 10 16 46 10 234 -40 102
-27 292 -78 424 -112 l239 -63 156 161 c86 89 162 159 169 157 8 -2 20 -4 28
-4z m64 -59 c0 -11 -4 -31 -10 -45 -7 -20 -135 -189 -302 -399 -17 -21 -18
-21 -18 38 l0 60 157 183 c87 100 161 182 165 182 4 0 8 -9 8 -19z m-1910
-276 c0 -212 -5 -233 -38 -176 -9 16 -31 36 -49 45 l-33 16 0 115 0 115 -413
0 -413 0 -44 45 -44 45 517 0 517 0 0 -205z m990 74 c179 -50 375 -105 435
-122 l110 -32 3 -73 c2 -39 -1 -72 -5 -71 -4 0 -215 69 -468 152 l-460 153 -3
51 -3 52 33 -10 c18 -5 179 -50 358 -100z"/>
<path d="M5065 6288 c-3 -18 -14 -105 -25 -192 -11 -87 -21 -161 -24 -163 -5
-5 -344 -53 -378 -53 -15 0 -44 11 -64 25 -53 36 -74 22 -74 -50 l0 -55 60 0
60 0 0 -34 c0 -19 -27 -110 -59 -203 -33 -92 -76 -216 -96 -275 -30 -86 -41
-108 -56 -108 -41 0 -5 -78 59 -128 62 -49 102 -65 166 -65 112 -1 204 47 255
133 27 45 26 60 -2 60 -20 0 -27 11 -54 98 -17 53 -59 177 -92 276 -34 98 -61
194 -61 212 l0 34 163 0 162 0 -12 -137 c-6 -76 -12 -312 -12 -525 l-1 -387
-67 -3 c-89 -4 -88 -18 5 -87 l72 -53 0 -123 c0 -100 -3 -124 -15 -129 -23 -9
-20 -83 4 -96 11 -5 67 -10 125 -10 97 0 106 2 120 22 22 31 20 54 -6 80 -20
20 -22 35 -26 138 l-4 115 79 55 c101 71 101 84 1 88 l-78 3 0 422 c0 232 -3
466 -7 520 l-6 97 166 0 c143 0 167 -2 167 -15 0 -13 -43 -142 -169 -510 -22
-64 -32 -81 -50 -83 -26 -4 -22 -25 15 -83 43 -69 128 -110 229 -112 103 -1
195 54 241 144 l24 49 -23 0 c-22 0 -29 13 -76 153 -29 83 -72 209 -97 278
-24 70 -44 138 -44 153 0 25 2 26 54 26 65 0 78 12 69 66 -10 67 -38 82 -86
44 -15 -12 -40 -20 -64 -20 -43 1 -361 45 -368 51 -2 3 -13 81 -25 174 -26
214 -26 215 -50 215 -14 0 -21 -9 -25 -32z m5 -943 c0 -588 0 -595 -20 -595
-20 0 -20 6 -19 383 0 210 4 432 9 492 5 61 12 156 16 213 4 56 9 102 11 102
1 0 3 -268 3 -595z m76 -147 l6 -448 -21 0 -21 0 1 588 c2 559 3 580 15 447 8
-77 17 -341 20 -587z m-526 182 l0 -200 -65 0 -65 0 6 28 c4 15 31 96 60 181
30 85 54 162 54 172 0 11 2 19 5 19 3 0 5 -90 5 -200z m890 0 l0 -200 -70 0
-70 0 14 38 c7 20 37 110 66 200 30 89 55 162 57 162 2 0 3 -90 3 -200z m-761
-17 l58 -183 -63 0 -64 0 1 193 c0 105 2 188 5 182 2 -5 30 -92 63 -192z m890
-18 c21 -66 41 -130 45 -142 7 -22 5 -23 -58 -23 l-66 0 0 193 1 192 20 -50
c11 -27 37 -104 58 -170z m-819 -240 c-86 -91 -254 -92 -339 -1 l-24 26 193 0
193 0 -23 -25z m879 -1 c-84 -91 -253 -90 -339 1 l-23 25 193 0 193 0 -24 -26z
m-459 -399 c0 -2 -20 -18 -44 -35 -37 -25 -54 -30 -102 -30 -47 0 -66 6 -106
31 -26 17 -48 33 -48 35 0 2 68 4 150 4 83 0 150 -2 150 -5z m-96 -127 c3 -13
6 -67 6 -120 l0 -98 -55 0 -55 0 0 120 0 120 49 0 c42 0 49 -3 55 -22z"/>
<path d="M6355 6178 c-48 -12 -90 -13 -129 -3 -41 11 -30 -13 21 -45 22 -14
73 -47 113 -73 83 -56 109 -67 152 -67 23 0 42 -11 76 -45 l45 -45 -5 -78 c-6
-103 -13 -112 -47 -65 -36 48 -70 79 -97 87 -16 5 -29 -2 -53 -30 -76 -86 -80
-156 -8 -162 33 -3 42 -10 77 -62 l40 -59 -19 -59 c-28 -81 -35 -150 -22 -199
22 -81 120 -133 251 -133 l65 0 68 -96 68 -96 -21 -55 c-11 -29 -20 -73 -20
-98 0 -83 72 -133 175 -122 l53 5 51 -71 c36 -52 51 -81 51 -105 0 -18 7 -49
15 -70 21 -48 83 -112 111 -112 12 0 27 -7 34 -15 27 -32 100 -6 100 36 0 8
-34 65 -74 126 -69 105 -74 115 -65 145 27 96 -2 168 -74 187 -25 6 -55 11
-66 11 -14 0 -36 23 -70 73 l-49 73 20 60 c27 81 22 172 -12 210 -34 36 -93
61 -168 69 l-63 7 -80 120 -80 121 25 62 c84 210 73 359 -33 458 -97 91 -251
141 -356 115z m59 -34 c9 -3 13 -10 10 -15 -8 -14 15 -39 37 -39 24 0 33 18
19 35 -15 19 -14 19 44 -1 155 -53 236 -149 236 -278 -1 -73 -13 -120 -75
-276 -57 -143 -67 -202 -44 -254 10 -22 62 -56 86 -56 8 0 53 -64 53 -76 0
-14 -131 6 -170 26 -58 29 -82 72 -77 135 2 28 31 123 65 216 84 230 95 312
48 384 -28 42 -84 78 -139 86 -51 8 -156 69 -164 96 -6 16 42 28 71 17z m105
-376 c17 -18 40 -51 52 -73 20 -38 21 -42 5 -79 l-16 -39 -31 44 c-40 57 -57
69 -91 69 -17 0 -28 5 -28 13 0 18 57 97 70 97 5 0 23 -15 39 -32z m306 -460
c167 -253 168 -255 161 -284 -4 -13 -10 -24 -14 -24 -5 0 -74 94 -155 208
l-146 209 11 36 c6 21 14 37 17 37 3 0 60 -82 126 -182z m214 -77 c71 -39 80
-120 25 -251 -19 -47 -37 -104 -41 -127 -5 -41 -4 -44 43 -87 l48 -45 -27 -6
c-41 -11 -91 2 -117 30 -29 31 -25 82 15 175 15 36 34 89 43 118 14 48 14 56
0 86 -9 18 -29 38 -45 45 -26 11 -77 74 -67 83 7 7 100 -9 123 -21z"/>
<path d="M9193 1019 c-109 -21 -214 -100 -253 -190 -30 -71 -36 -168 -16 -247
45 -178 206 -271 447 -260 129 6 143 16 158 104 7 36 9 69 5 73 -4 3 -8 1 -11
-4 -15 -42 -45 -81 -74 -97 -44 -23 -170 -25 -224 -2 -52 22 -129 97 -155 151
-45 97 -36 265 20 341 45 62 90 85 180 90 130 7 217 -36 235 -118 12 -57 25
-30 25 54 0 96 7 90 -105 106 -82 11 -173 11 -232 -1z"/>
<path d="M180 1010 c0 -5 10 -10 23 -10 13 0 32 -6 43 -14 18 -13 19 -32 24
-248 6 -253 12 -282 68 -341 54 -57 97 -72 207 -72 110 0 154 15 206 72 64 68
79 143 79 395 0 188 5 208 51 208 10 0 19 5 19 10 0 6 -47 10 -120 10 -73 0
-120 -4 -120 -10 0 -5 10 -10 23 -10 13 0 32 -6 43 -14 17 -13 19 -30 22 -184
4 -200 -8 -323 -35 -361 -32 -44 -100 -73 -161 -68 -87 6 -146 66 -157 160 -3
29 -5 142 -3 252 l3 200 33 10 c62 18 31 25 -108 25 -87 0 -140 -4 -140 -10z"/>
<path d="M1048 915 c-5 -5 -8 -114 -9 -244 0 -287 -4 -315 -42 -319 -15 -2
-27 -7 -27 -12 0 -12 198 -12 205 0 4 6 -7 10 -24 10 -19 0 -34 7 -39 18 -9
16 -26 372 -19 372 2 0 98 -95 212 -210 126 -126 213 -206 218 -201 5 5 12
125 14 268 3 142 10 266 15 276 5 9 18 17 28 17 11 0 20 4 20 9 0 9 -179 12
-195 2 -5 -3 3 -8 20 -11 48 -8 55 -35 55 -230 l0 -174 -212 218 c-117 120
-216 215 -220 211z"/>
<path d="M4095 905 c-61 -21 -105 -75 -105 -127 0 -67 33 -121 116 -189 107
-87 128 -140 80 -196 -21 -24 -32 -28 -76 -28 -46 0 -55 4 -81 33 -16 18 -29
43 -29 57 0 53 -18 30 -25 -32 -8 -78 -1 -88 72 -99 89 -13 176 15 215 69 13
18 23 51 26 82 6 68 -21 120 -90 177 -108 89 -128 113 -128 151 0 26 7 41 26
56 52 41 122 21 152 -42 l19 -40 7 58 c3 32 4 60 2 62 -8 8 -80 23 -111 22
-16 0 -48 -6 -70 -14z"/>
<path d="M5735 653 c-59 -148 -114 -276 -122 -285 -9 -10 -27 -18 -40 -18 -12
0 -23 -4 -23 -10 0 -6 38 -10 95 -10 57 0 95 4 95 10 0 6 -9 10 -19 10 -33 0
-34 18 -5 101 l28 80 90 -3 90 -3 28 -75 c16 -41 27 -84 26 -95 -3 -19 4 -20
86 -23 53 -2 93 1 100 8 7 7 2 10 -17 10 -17 0 -37 10 -50 24 -12 13 -67 136
-121 273 -97 244 -111 273 -126 273 -4 0 -56 -120 -115 -267z"/>
<path d="M1774 899 c-2 -4 9 -9 25 -12 26 -6 30 -12 36 -52 9 -57 1 -444 -10
-467 -4 -10 -18 -18 -32 -18 -13 0 -22 -4 -18 -9 7 -13 235 -13 235 -1 0 6
-14 10 -30 10 -24 0 -33 6 -40 26 -14 35 -13 470 0 495 6 10 20 19 30 19 11 0
20 4 20 8 0 9 -210 11 -216 1z"/>
<path d="M2085 900 c-3 -4 8 -10 23 -14 15 -3 33 -9 39 -14 7 -4 61 -125 120
-268 58 -142 111 -265 116 -272 7 -8 14 -9 20 -3 5 5 61 126 124 267 63 142
121 267 130 276 9 10 25 18 35 18 11 0 17 4 14 8 -7 12 -176 13 -176 1 0 -5 9
-9 19 -9 11 0 22 -4 26 -9 5 -10 -146 -401 -155 -401 -10 0 -152 389 -145 400
3 5 16 10 27 10 12 0 18 3 14 8 -10 9 -225 11 -231 2z"/>
<path d="M2783 898 c-2 -5 6 -8 19 -8 52 0 53 -4 56 -228 4 -246 -3 -306 -36
-310 -12 -2 -22 -8 -22 -13 0 -5 74 -9 175 -9 l175 0 5 28 c4 15 8 37 11 50 8
39 -7 45 -24 10 -20 -38 -65 -52 -133 -40 -38 6 -44 11 -51 40 -5 18 -7 70 -6
115 l3 82 61 3 c67 3 94 -11 94 -51 0 -46 18 1 22 56 2 48 1 56 -12 50 -8 -4
-49 -8 -90 -8 l-75 0 -3 98 -3 97 74 0 c75 0 97 -9 97 -42 0 -10 5 -18 10 -18
6 0 10 15 10 33 0 17 3 41 6 52 5 19 0 20 -176 20 -100 0 -184 -3 -187 -7z"/>
<path d="M3330 901 c0 -6 10 -11 23 -11 45 0 47 -10 47 -263 0 -246 -4 -277
-40 -277 -11 0 -20 -4 -20 -9 0 -5 52 -10 115 -10 67 0 115 4 115 9 0 6 -10
10 -23 10 -40 0 -47 18 -47 122 l0 98 35 0 c32 0 40 -7 107 -97 95 -126 110
-137 204 -141 76 -4 103 10 42 22 -36 7 -117 86 -197 189 l-43 56 31 32 c91
91 87 197 -9 253 -28 17 -57 20 -187 23 -103 3 -153 1 -153 -6z m260 -46 c16
-9 36 -29 45 -45 30 -59 12 -178 -30 -194 -9 -3 -37 -6 -61 -6 l-44 0 0 130 0
130 30 0 c17 0 44 -7 60 -15z"/>
<path d="M4474 898 c-3 -4 4 -8 14 -8 43 0 47 -20 47 -259 0 -255 -4 -281 -40
-281 -14 0 -25 -4 -25 -9 0 -6 53 -10 120 -10 70 0 120 4 120 9 0 6 -14 10
-30 10 -24 0 -33 6 -40 26 -14 35 -13 470 0 495 6 10 20 19 30 19 11 0 20 4
20 8 0 4 -48 8 -106 8 -58 0 -108 -4 -110 -8z"/>
<path d="M4870 899 c0 -5 10 -9 23 -9 45 0 47 -10 47 -263 0 -246 -4 -277 -40
-277 -11 0 -20 -4 -20 -10 0 -6 71 -9 198 -7 192 2 198 3 248 29 58 31 116 91
140 145 11 25 17 66 17 118 0 67 -4 88 -26 131 -61 119 -134 147 -399 150
-106 1 -188 -2 -188 -7z m362 -55 c65 -32 101 -67 125 -121 22 -49 25 -65 21
-142 -5 -100 -26 -146 -83 -181 -75 -47 -220 -47 -245 0 -16 29 -13 457 3 464
23 11 145 -3 179 -20z"/>
<path d="M6240 899 c0 -5 10 -9 23 -9 45 0 47 -10 47 -263 0 -246 -4 -277 -40
-277 -11 0 -20 -4 -20 -10 0 -6 72 -9 193 -7 184 2 194 3 247 28 67 31 104 67
138 134 22 42 26 63 26 130 0 67 -4 88 -27 131 -61 120 -135 147 -399 150
-104 1 -188 -2 -188 -7z m362 -55 c65 -32 101 -67 125 -121 22 -49 25 -65 21
-142 -5 -100 -26 -146 -83 -181 -70 -43 -212 -45 -242 -4 -18 25 -19 460 0
468 23 11 145 -3 179 -20z"/>
<path d="M7310 898 c0 -4 9 -8 19 -8 48 0 51 -16 51 -260 0 -126 -4 -240 -10
-254 -6 -16 -17 -26 -30 -26 -11 0 -20 -5 -20 -10 0 -7 66 -10 193 -8 188 3
193 4 249 31 104 51 158 141 158 263 0 157 -87 250 -255 273 -82 11 -355 11
-355 -1z m324 -42 c109 -33 174 -115 183 -230 13 -162 -68 -256 -222 -260 -43
-1 -69 4 -88 17 l-27 17 0 229 c0 125 3 231 7 234 11 12 98 8 147 -7z"/>
<path d="M8073 898 c-2 -5 6 -8 19 -8 52 0 53 -4 56 -228 2 -114 -1 -230 -5
-258 -7 -44 -11 -49 -36 -52 -15 -2 -25 -8 -22 -13 4 -5 84 -9 180 -9 l175 0
5 28 c4 15 8 37 11 50 8 39 -7 45 -24 10 -14 -26 -25 -34 -58 -41 -22 -4 -58
-4 -79 1 -48 10 -57 36 -53 155 l3 82 61 3 c67 3 94 -11 94 -49 0 -11 5 -17
10 -14 6 3 10 33 10 66 0 57 -1 59 -20 49 -11 -6 -51 -10 -88 -8 l-67 3 -3 98
-3 97 70 0 c71 0 101 -14 101 -46 0 -8 5 -14 10 -14 6 0 10 18 10 39 0 22 2
45 5 53 4 10 -29 13 -176 13 -99 0 -183 -3 -186 -7z"/>
<path d="M9710 898 c0 -4 10 -8 23 -8 45 0 47 -10 47 -270 0 -255 -2 -270 -42
-270 -10 0 -18 -4 -18 -9 0 -6 53 -10 120 -10 70 0 120 4 120 9 0 6 -13 10
-30 10 -43 0 -50 23 -50 154 l0 116 151 0 152 0 -6 -117 c-6 -137 -10 -153
-44 -153 -13 0 -22 -4 -18 -9 7 -13 235 -13 235 -1 0 6 -10 10 -22 10 -52 1
-53 2 -56 252 -3 247 2 288 38 288 11 0 20 4 20 8 0 11 -219 12 -226 1 -3 -5
5 -9 18 -9 46 0 52 -13 56 -119 l4 -101 -151 0 -151 0 0 98 c0 101 7 122 42
122 10 0 18 4 18 8 0 5 -52 8 -115 9 -63 0 -115 -4 -115 -9z"/>
<path d="M10520 898 c0 -4 8 -8 18 -8 40 0 42 -15 42 -270 0 -256 -2 -270 -43
-270 -10 0 -16 -4 -13 -9 8 -12 236 -13 236 0 0 5 -14 9 -30 9 -24 0 -33 6
-40 26 -14 35 -13 470 0 495 6 10 20 19 30 19 11 0 20 3 20 8 0 4 -49 8 -110
8 -60 0 -110 -3 -110 -8z"/>
<path d="M10924 898 c-3 -4 5 -8 18 -8 46 0 48 -9 48 -270 0 -255 -2 -270 -42
-270 -10 0 -18 -4 -18 -10 0 -12 366 -14 374 -2 12 20 18 112 7 112 -6 0 -11
-8 -11 -18 0 -36 -32 -52 -106 -52 -38 0 -76 5 -84 10 -12 8 -16 47 -18 234
-3 244 0 266 45 266 14 0 23 3 19 7 -10 11 -226 12 -232 1z"/>
<path d="M11443 898 c-2 -5 6 -8 19 -8 52 0 53 -4 56 -222 4 -247 -4 -312 -36
-316 -12 -2 -22 -8 -22 -13 0 -5 74 -9 175 -9 173 0 175 0 179 23 19 93 14
118 -13 64 -19 -37 -61 -50 -129 -41 -56 8 -64 28 -60 148 l3 91 61 3 c67 3
94 -11 94 -51 0 -46 18 1 22 56 2 48 1 56 -12 50 -8 -4 -50 -9 -92 -11 l-78
-4 0 101 0 101 76 0 c75 0 76 0 87 -30 16 -41 27 -38 27 9 0 22 2 45 5 53 4
10 -29 13 -176 13 -99 0 -183 -3 -186 -7z"/>
</g>
</svg>
