<?xml version="1.0" standalone="no"?>
<!DOCTYPE svg PUBLIC "-//W3C//DTD SVG 20010904//EN"
 "http://www.w3.org/TR/2001/REC-SVG-20010904/DTD/svg10.dtd">
<svg version="1.0" xmlns="http://www.w3.org/2000/svg"
 width="1500.000000pt" height="1239.000000pt" viewBox="0 0 1500.000000 1239.000000"
 preserveAspectRatio="xMidYMid meet">

<g transform="translate(0.000000,1239.000000) scale(0.100000,-0.100000)"
fill="#000000" stroke="none">
<path d="M7477 11973 c-10 -9 -9 -1123 1 -1123 4 0 17 -3 30 -6 l22 -6 0 571
0 571 -23 0 c-13 0 -27 -3 -30 -7z"/>
<path d="M6245 11580 c-8 -12 6 -37 68 -124 80 -113 563 -748 596 -783 29 -32
61 -36 61 -8 0 18 -90 142 -362 498 -302 397 -345 447 -363 417z"/>
<path d="M8678 11528 c-128 -151 -648 -844 -648 -863 0 -28 38 -15 76 28 56
60 454 582 597 781 32 43 57 85 57 92 0 30 -40 11 -82 -38z"/>
<path d="M7114 11137 c-8 -21 9 -98 47 -217 33 -102 54 -135 78 -121 12 8 11
23 -9 98 -27 103 -73 220 -94 242 -14 13 -16 13 -22 -2z"/>
<path d="M7852 11138 c-12 -16 -102 -298 -102 -321 0 -24 47 -22 60 3 19 35
80 261 80 296 0 35 -18 46 -38 22z"/>
<path d="M7468 10705 c-19 -38 -63 -133 -98 -210 -79 -175 -106 -216 -145
-226 -27 -7 -462 -59 -493 -59 -22 0 -4 -19 186 -199 102 -97 185 -184 188
-198 4 -13 -15 -134 -41 -269 -26 -135 -44 -248 -41 -251 5 -5 97 42 341 176
71 39 134 71 140 71 6 0 114 -58 240 -129 215 -121 230 -128 233 -107 2 13
-18 126 -43 252 -39 192 -45 235 -36 264 8 27 45 66 158 167 190 169 231 211
212 217 -8 3 -115 17 -239 31 -124 15 -238 30 -255 34 -26 6 -38 22 -95 136
-36 72 -91 184 -121 250 l-56 120 -35 -70z m199 -424 l38 -75 207 -25 c113
-14 210 -30 214 -34 5 -5 -36 -49 -91 -100 -55 -50 -127 -117 -159 -148 l-59
-56 42 -217 c24 -120 41 -219 39 -222 -2 -2 -91 46 -198 106 -107 60 -197 107
-200 106 -3 -2 -87 -49 -187 -106 -100 -56 -186 -100 -191 -98 -5 1 6 84 25
183 18 99 36 195 40 214 6 32 2 37 -153 186 -131 126 -155 153 -139 158 11 3
99 15 195 27 96 11 185 23 197 26 25 5 63 75 164 298 l53 119 63 -134 c34 -74
79 -167 100 -208z"/>
<path d="M7460 10395 c-23 -49 -55 -121 -72 -160 -17 -38 -33 -73 -37 -77 -3
-3 -78 -14 -166 -23 -88 -9 -164 -21 -170 -27 -7 -7 30 -49 116 -131 l125
-122 -34 -168 c-19 -92 -32 -170 -29 -173 3 -3 75 33 159 79 l153 86 65 -36
c152 -85 250 -134 250 -126 0 4 -14 83 -32 176 l-32 167 90 83 c49 46 107 100
129 120 31 28 37 39 26 46 -12 7 -64 15 -285 38 l-58 6 -36 81 c-20 45 -55
119 -78 166 l-42 85 -42 -90z m102 -146 c72 -142 63 -135 208 -154 68 -9 126
-18 129 -21 3 -3 -41 -49 -97 -102 l-102 -97 27 -128 c14 -70 23 -130 20 -134
-4 -3 -56 22 -116 56 -60 33 -117 61 -126 61 -9 0 -61 -25 -116 -55 -55 -30
-106 -55 -114 -55 -16 0 -16 -3 16 163 l20 99 -68 62 c-37 34 -84 76 -103 93
-19 17 -33 34 -30 37 3 2 62 12 130 21 147 18 146 17 212 163 23 51 47 91 52
89 6 -2 32 -46 58 -98z"/>
<path d="M6490 10701 c0 -19 209 -187 263 -212 30 -13 57 -6 57 15 0 13 -171
147 -251 195 -43 26 -69 27 -69 2z"/>
<path d="M8440 10694 c-24 -14 -90 -60 -147 -101 -87 -66 -100 -79 -92 -95 16
-30 39 -21 136 50 117 86 186 149 178 162 -10 15 -26 12 -75 -16z"/>
<path d="M5556 10641 c-10 -16 6 -42 33 -53 101 -41 1030 -348 1052 -348 16 0
29 7 33 16 4 9 5 18 4 19 -12 11 -1024 354 -1090 369 -15 3 -29 2 -32 -3z"/>
<path d="M9065 10531 c-701 -238 -738 -252 -733 -278 2 -13 11 -17 28 -15 35
5 929 304 1015 339 79 33 100 63 43 63 -18 0 -177 -49 -353 -109z"/>
<path d="M6290 9993 c-14 -3 -31 -10 -38 -16 -30 -24 11 -32 188 -35 l180 -4
0 31 0 31 -152 -1 c-84 -1 -164 -4 -178 -6z"/>
<path d="M8413 9993 c-24 -3 -33 -9 -33 -23 0 -28 49 -34 214 -26 136 7 171
15 151 35 -11 11 -280 22 -332 14z"/>
<path d="M6290 9581 c-677 -232 -761 -266 -720 -291 21 -13 110 14 530 161
223 77 437 152 475 165 95 33 100 37 86 63 -7 11 -15 21 -19 20 -4 0 -162 -53
-352 -118z"/>
<path d="M8342 9678 c2 -15 16 -29 39 -41 45 -22 927 -329 991 -345 63 -16 68
-15 68 9 0 14 -13 26 -45 40 -64 28 -1023 359 -1041 359 -10 0 -14 -8 -12 -22z"/>
<path d="M6730 9429 c-48 -29 -180 -131 -224 -172 -72 -68 -31 -78 64 -16 71
46 216 154 224 168 3 4 -2 16 -12 24 -16 15 -21 15 -52 -4z"/>
<path d="M8222 9438 c-7 -7 -12 -17 -12 -24 0 -9 171 -145 250 -197 30 -21 70
-22 70 -3 0 21 -265 236 -290 236 -3 0 -11 -5 -18 -12z"/>
<path d="M6945 9236 c-6 -8 -62 -81 -126 -162 -144 -185 -389 -517 -476 -646
-61 -90 -73 -125 -37 -111 20 7 142 160 364 457 257 344 324 444 309 462 -14
18 -22 18 -34 0z"/>
<path d="M8024 9226 c-7 -19 35 -83 220 -331 288 -386 446 -585 467 -585 41 0
-59 148 -484 708 -93 122 -175 222 -183 222 -8 0 -17 -7 -20 -14z"/>
<path d="M7793 9109 c-13 -4 -23 -13 -23 -19 0 -22 102 -306 115 -319 17 -17
35 -6 35 22 0 25 -88 308 -98 318 -4 4 -17 3 -29 -2z"/>
<path d="M7152 9028 c-68 -190 -83 -268 -53 -268 19 0 43 48 82 164 48 142 53
180 23 184 -19 3 -26 -8 -52 -80z"/>
<path d="M7477 9053 c-4 -3 -7 -181 -7 -395 l0 -388 30 0 30 0 0 395 0 395
-23 0 c-13 0 -27 -3 -30 -7z"/>
<path d="M5155 5488 c4 -1498 10 -2790 15 -2873 5 -97 14 -168 25 -200 79
-233 213 -360 406 -385 40 -5 360 -10 709 -10 663 -1 994 -10 1045 -30 17 -6
58 -30 93 -52 l63 -41 22 21 c12 11 51 36 87 55 l65 36 775 6 c926 8 969 10
1065 56 138 66 264 234 295 394 21 111 29 978 29 3373 l1 2372 -2351 0 -2351
0 7 -2722z m3312 2622 l1293 0 -3 -2772 c-2 -2611 -4 -2777 -20 -2838 -44
-162 -137 -290 -255 -353 l-52 -28 -828 -10 c-455 -5 -852 -13 -883 -18 -67
-11 -122 -33 -165 -66 -41 -31 -50 -31 -97 0 -92 63 -113 68 -367 76 -129 4
-498 8 -820 8 -322 1 -615 6 -652 10 -168 22 -288 143 -344 346 -33 124 -37
493 -29 3119 l7 2539 961 -6 c528 -4 1542 -7 2254 -7z"/>
<path d="M5390 6575 l0 -1395 706 0 707 0 -7 -37 c-3 -21 -6 -48 -6 -60 l0
-23 -701 0 -700 0 4 -1222 c3 -872 8 -1240 16 -1282 22 -111 98 -214 197 -268
l49 -26 825 -9 c810 -10 826 -10 880 -31 30 -12 58 -22 62 -22 5 0 9 489 10
1088 l3 1087 65 0 65 0 3 -1091 2 -1092 63 26 62 26 825 9 825 9 58 31 c69 36
126 97 164 176 l28 56 6 330 c4 182 7 752 8 1268 l1 937 -699 0 -699 0 -4 48
c-3 26 -1 52 4 57 6 6 257 11 703 13 l695 3 0 1395 0 1394 -1020 0 -1020 0 0
-1074 c0 -591 -3 -1077 -7 -1079 -5 -2 -36 -7 -70 -11 l-63 -7 0 1086 0 1085
-1020 0 -1020 0 0 -1395z m1988 278 l-3 -1076 -80 -22 c-238 -64 -403 -216
-480 -445 l-23 -65 -671 -3 -671 -2 0 1345 0 1345 965 0 965 0 -2 -1077z
m2190 -271 l2 -1342 -687 2 -686 3 -23 67 c-80 239 -283 432 -511 489 l-53 13
0 1058 0 1058 978 -2 977 -3 3 -1343z m-1803 -872 c247 -121 395 -353 395
-617 -1 -288 -180 -545 -442 -634 -315 -106 -658 33 -806 327 -54 108 -67 165
-66 309 0 118 3 138 30 215 54 153 153 271 290 342 123 64 244 87 252 46 3
-13 -13 -22 -70 -38 -109 -33 -185 -77 -265 -156 -99 -97 -135 -181 -153 -358
-12 -120 2 -206 51 -305 75 -152 224 -274 385 -316 237 -62 527 63 638 274 46
88 66 173 66 287 0 211 -83 382 -236 487 -102 70 -162 88 -266 80 l-85 -6 -6
29 c-3 16 -9 41 -13 57 -6 24 -4 27 20 27 19 0 26 -5 26 -20 0 -15 7 -20 26
-20 21 0 25 4 21 20 -3 10 0 21 6 23 28 9 130 -17 202 -53z m-335 -96 c22 -9
40 -22 40 -29 0 -25 -428 -725 -445 -728 -5 -1 -19 23 -29 53 -30 84 -28 282
3 369 57 163 169 273 341 337 46 17 43 17 90 -2z m311 -41 c156 -77 263 -229
281 -400 13 -127 -2 -262 -35 -307 -12 -17 -23 -4 -112 140 -54 88 -157 256
-227 374 -144 239 -142 228 -37 229 46 1 70 -6 130 -36z m-208 -95 c29 -39
187 -308 187 -319 0 -4 -24 -1 -52 7 -119 31 -230 28 -367 -12 -21 -6 -23 -4
-17 11 17 46 202 345 213 345 7 0 23 -15 36 -32z m71 -354 c26 -25 21 -97 -9
-132 -65 -78 -169 -62 -204 31 -14 35 -14 58 -1 91 9 25 12 26 104 26 73 0 98
-4 110 -16z m-305 -163 c157 -90 232 -90 405 -1 94 49 99 50 117 34 18 -16 89
-135 89 -148 0 -10 -808 -7 -814 3 -8 12 90 161 105 161 6 0 50 -22 98 -49z
m616 -180 l30 -8 -55 -52 c-30 -29 -77 -68 -105 -86 -101 -68 -261 -100 -378
-75 -112 23 -270 120 -327 201 l-21 29 413 -1 c227 -1 427 -5 443 -8z m725
-253 c24 -26 27 -100 5 -138 -23 -40 -18 -60 15 -71 32 -12 40 -33 15 -43 -69
-26 -186 -12 -206 26 -15 28 -4 116 17 139 21 23 32 24 55 3 33 -30 83 25 65
72 -6 15 0 34 9 34 2 0 13 -10 25 -22z m-97 -316 c14 -15 17 -64 23 -341 l7
-323 -69 8 c-38 5 -126 8 -195 7 l-127 -2 -7 252 c-4 139 -5 265 -4 281 4 26
10 31 49 41 25 7 83 30 130 52 97 47 165 56 193 25z m282 -27 c47 -25 104 -48
125 -51 l40 -7 -2 -286 -3 -286 -185 0 -185 0 -3 332 c-3 374 -11 340 81 342
38 1 64 -8 132 -44z m-694 -200 c9 -93 10 -424 3 -452 -4 -13 -14 -23 -24 -23
-10 0 -21 10 -24 23 -11 36 -19 387 -12 460 7 62 10 68 29 65 19 -3 23 -11 28
-73z m950 0 c9 -94 10 -424 3 -453 -4 -14 -13 -22 -23 -20 -22 4 -33 170 -25
386 5 144 8 163 23 160 12 -2 17 -19 22 -73z m-2513 -51 c50 -35 47 -43 -59
-152 -105 -109 -110 -111 -152 -64 -12 13 -16 28 -12 44 15 58 141 188 184
188 9 0 27 -7 39 -16z m120 -137 c23 -23 42 -52 42 -63 0 -10 -33 -55 -73 -99
l-73 -79 -62 43 c-34 24 -62 47 -62 51 0 23 158 190 180 190 3 0 25 -19 48
-43z m159 -137 c29 -23 53 -44 53 -48 0 -27 -142 -192 -165 -192 -6 0 -34 24
-63 53 l-53 53 78 87 c43 48 82 87 87 87 5 0 33 -18 63 -40z m147 -101 c34
-27 33 -55 -5 -112 -34 -52 -134 -147 -154 -147 -7 0 -27 16 -45 36 l-31 36
73 77 c40 43 83 90 95 104 26 32 33 33 67 6z m1038 -86 c17 -15 29 -15 151 -2
198 21 703 19 827 -4 51 -10 96 -20 99 -22 7 -7 -52 -67 -138 -141 -54 -47
-82 -64 -103 -64 -38 0 -911 189 -921 199 -5 5 7 18 25 29 40 26 37 26 60 5z
m1194 -91 c-14 -21 -89 -100 -166 -177 l-140 -140 0 66 0 66 128 116 c70 64
143 128 162 142 l35 26 3 -31 c2 -22 -5 -44 -22 -68z m-1125 -27 c110 -23 761
-166 766 -169 1 -1 5 -34 9 -75 l7 -74 -44 6 c-37 5 -680 169 -774 197 -16 5
-49 14 -72 20 l-43 11 0 48 c0 46 5 61 20 61 4 0 63 -11 131 -25z m1254 4 c10
-15 -17 -50 -209 -274 -117 -137 -174 -195 -185 -192 -308 85 -1031 293 -1143
328 -58 19 -47 33 20 26 31 -4 279 -65 551 -137 271 -71 498 -130 504 -130 6
0 100 88 207 195 155 154 202 195 222 195 15 0 30 -5 33 -11z m70 -86 c-4 -21
-27 -67 -53 -103 -80 -114 -344 -450 -353 -450 -5 0 -9 31 -9 69 l0 70 98 113
c301 350 332 380 317 301z m-2387 -322 c-2 -137 -6 -253 -10 -257 -4 -4 -27
14 -50 39 -24 25 -55 50 -71 56 l-27 11 0 145 0 145 -513 0 -513 0 -54 55 -54
55 647 0 648 0 -3 -249z m1595 -11 l327 -92 0 -95 c0 -72 -3 -94 -12 -91 -7 3
-270 90 -585 193 l-571 188 -4 61 c-2 34 -3 64 -1 67 1 3 118 -27 260 -66 142
-40 405 -114 586 -165z"/>
<path d="M6344 7889 c-3 -6 -19 -106 -35 -223 -16 -116 -31 -220 -34 -232 -4
-18 -18 -23 -112 -38 -60 -9 -169 -24 -244 -33 l-136 -17 -51 27 c-88 46 -102
38 -102 -64 l0 -59 76 0 77 0 -7 -47 c-6 -47 -163 -522 -215 -653 -17 -42 -34
-68 -49 -75 -26 -12 -27 -17 -6 -60 23 -49 106 -122 171 -152 50 -23 64 -25
142 -21 131 8 212 50 275 142 38 54 46 86 22 86 -8 0 -21 7 -30 15 -21 22
-227 646 -233 711 l-6 54 208 0 207 0 -6 -43 c-15 -100 -25 -439 -26 -839 l0
-427 -52 -5 c-29 -3 -66 -7 -83 -8 -50 -5 -36 -29 57 -98 l87 -65 0 -144 c1
-129 -1 -147 -20 -178 -25 -40 -20 -97 11 -113 10 -5 77 -10 148 -10 110 0
131 3 144 18 29 34 30 54 2 96 -24 35 -28 55 -35 156 -4 63 -8 127 -8 141 -1
22 12 36 72 77 151 107 153 116 21 126 -48 3 -89 7 -90 9 -1 1 -4 293 -6 650
l-3 647 195 0 c107 0 201 -4 209 -9 16 -11 24 14 -112 -386 -90 -267 -116
-335 -139 -357 -35 -33 -35 -43 1 -99 40 -64 96 -106 170 -129 167 -52 332 5
411 143 35 62 36 63 11 70 -10 2 -26 15 -34 28 -29 46 -229 643 -230 689 l-2
45 60 5 c33 3 66 9 73 13 14 10 16 75 2 112 -15 39 -37 42 -93 10 -46 -26 -55
-27 -126 -21 -79 6 -411 53 -416 58 -2 2 -15 95 -30 208 -15 113 -31 222 -36
243 -10 36 -31 49 -45 26z m-9 -1897 c-5 -42 -10 -53 -23 -50 -16 3 -17 44
-20 483 -2 361 1 537 13 710 9 127 19 244 23 260 9 37 15 -1330 7 -1403z m84
1083 c6 -115 14 -418 17 -672 l7 -463 -33 0 -33 0 6 167 c4 91 7 401 7 687 0
302 4 515 9 506 5 -8 14 -109 20 -225z m-641 -382 l-3 -218 -82 -3 c-46 -2
-83 1 -83 5 -1 4 34 116 77 249 65 201 79 236 86 213 4 -16 6 -126 5 -246z
m1112 27 l0 -250 -90 0 c-49 0 -90 1 -90 3 0 7 159 477 165 486 3 6 8 11 11
11 2 0 4 -112 4 -250z m156 -23 c57 -175 66 -210 54 -217 -8 -6 -45 -10 -82
-10 l-68 0 0 243 c1 208 3 239 14 217 8 -14 44 -119 82 -233z m-1107 7 c39
-121 71 -224 71 -227 0 -4 -36 -7 -80 -7 l-80 0 0 237 c0 142 4 233 9 228 5
-6 41 -109 80 -231z m111 -293 c0 -15 -72 -73 -114 -91 -23 -10 -63 -21 -91
-24 -90 -12 -219 38 -260 100 l-15 24 240 0 c135 0 240 -4 240 -9z m1100 1 c0
-17 -68 -72 -115 -93 -115 -51 -287 -12 -352 81 -14 20 -11 20 226 20 133 0
241 -4 241 -8z m-600 -529 c0 -5 -23 -24 -51 -43 -45 -30 -60 -35 -123 -38
-65 -3 -76 0 -130 31 -33 18 -62 39 -64 45 -3 9 43 12 182 12 102 0 186 -3
186 -7z m-120 -159 c6 -14 10 -81 10 -150 l0 -124 -70 0 -70 0 0 150 0 150 60
0 c56 0 61 -2 70 -26z"/>
<path d="M7925 7718 c-22 -5 -68 -7 -102 -5 -35 3 -63 1 -63 -4 0 -12 249
-175 305 -200 22 -10 54 -19 71 -19 32 0 63 -19 122 -74 30 -28 32 -34 32 -95
-1 -68 -13 -147 -24 -158 -3 -4 -31 22 -62 56 -31 34 -69 68 -85 76 -28 15
-30 14 -67 -19 -42 -39 -82 -110 -82 -149 0 -30 24 -57 50 -57 38 0 66 -23
111 -88 l46 -67 -24 -75 c-13 -41 -26 -111 -29 -155 -5 -71 -3 -85 18 -125 44
-82 157 -130 309 -130 l68 0 86 -121 86 -121 -22 -62 c-30 -82 -31 -174 -3
-213 36 -49 88 -68 181 -66 l81 2 56 -83 c44 -65 59 -98 71 -155 9 -45 26 -89
45 -117 33 -46 94 -94 121 -94 9 0 22 -7 29 -15 17 -21 73 -19 100 3 31 25 25
46 -56 172 -91 143 -104 173 -93 218 30 131 -17 212 -135 227 -28 4 -59 15
-70 24 -26 22 -116 157 -116 173 0 7 9 42 20 76 22 70 26 147 10 204 -19 68
-105 118 -225 133 -27 3 -60 8 -71 10 -15 3 -53 53 -119 155 l-98 151 26 67
c133 338 85 536 -161 665 -113 60 -236 80 -337 55z m89 -34 c9 -3 16 -14 16
-23 0 -24 20 -41 48 -41 22 0 24 3 19 30 -4 17 -4 30 -2 30 15 0 144 -54 174
-72 61 -38 122 -100 149 -153 20 -39 26 -69 30 -135 4 -97 -8 -143 -98 -385
-59 -158 -71 -234 -46 -282 16 -32 72 -73 98 -73 20 0 80 -92 69 -103 -15 -15
-153 12 -211 41 -43 21 -60 36 -78 72 -32 62 -25 102 58 350 110 323 118 379
74 469 -30 59 -88 104 -159 122 -127 31 -266 131 -212 152 18 8 53 8 71 1z
m139 -474 c18 -22 46 -62 61 -90 27 -50 27 -51 10 -95 -9 -25 -20 -45 -25 -45
-4 0 -24 23 -44 50 -45 61 -71 80 -108 80 -15 0 -30 6 -33 14 -9 24 65 126 92
126 7 0 28 -18 47 -40z m239 -367 c26 -30 298 -441 324 -490 28 -53 29 -62 10
-88 -12 -17 -20 -10 -98 96 -47 63 -131 181 -188 262 l-102 148 12 44 c14 50
20 53 42 28z m404 -302 c93 -42 102 -133 30 -336 -25 -71 -46 -144 -46 -160 0
-24 12 -43 55 -85 38 -38 51 -56 42 -62 -20 -13 -96 -9 -127 7 -75 39 -78 97
-14 267 50 132 63 202 45 237 -7 12 -30 35 -53 51 -40 30 -88 85 -88 103 0 15
107 -1 156 -22z"/>
<path d="M11461 1265 c-119 -34 -233 -123 -276 -217 -34 -74 -49 -182 -37
-261 31 -193 138 -309 331 -358 69 -17 106 -20 220 -17 161 4 182 12 199 80
20 82 24 128 13 128 -6 0 -11 -6 -11 -13 0 -27 -62 -99 -98 -115 -57 -24 -214
-22 -272 5 -100 45 -190 151 -216 255 -20 76 -14 219 11 290 23 66 94 142 152
164 57 22 198 25 267 5 63 -18 120 -72 137 -130 10 -35 14 -40 20 -25 10 26
11 166 1 182 -15 23 -77 33 -232 38 -119 3 -168 1 -209 -11z"/>
<path d="M230 1265 c0 -2 18 -9 40 -15 22 -6 45 -20 50 -31 7 -11 15 -133 20
-283 12 -344 19 -376 103 -453 61 -56 101 -68 237 -68 138 0 177 12 241 72 88
82 105 156 113 497 6 232 13 266 56 266 10 0 22 5 25 10 4 6 -45 10 -139 10
-80 0 -146 -2 -146 -5 0 -2 18 -9 40 -15 63 -17 65 -25 65 -300 0 -352 -15
-409 -122 -461 -91 -44 -219 -20 -272 51 -47 65 -51 93 -51 405 l0 293 35 6
c19 4 35 11 35 16 0 6 -67 10 -165 10 -91 0 -165 -2 -165 -5z"/>
<path d="M5143 1136 c-92 -30 -153 -95 -153 -163 0 -75 29 -122 147 -237 125
-122 143 -153 118 -212 -20 -48 -55 -67 -123 -66 -53 0 -59 3 -94 41 -28 29
-38 49 -38 73 0 62 -22 12 -28 -61 l-5 -71 39 -16 c29 -12 60 -15 124 -12 130
7 190 44 216 136 32 109 -2 184 -131 293 -47 39 -95 85 -106 101 -51 72 -5
158 86 158 35 0 51 -6 79 -31 19 -16 38 -39 41 -50 11 -35 25 -9 25 47 0 48
-3 56 -23 63 -45 17 -131 21 -174 7z"/>
<path d="M7273 1059 c-23 -52 -78 -184 -123 -294 -97 -237 -130 -307 -150
-316 -8 -4 -26 -12 -40 -17 -19 -8 2 -11 93 -11 76 -1 116 3 112 9 -3 6 -15
10 -26 10 -27 0 -25 39 10 140 l28 85 114 -4 c63 -2 116 -7 119 -12 3 -4 18
-47 34 -96 16 -48 33 -98 37 -110 8 -22 14 -23 114 -23 63 0 105 4 105 10 0 6
-11 10 -25 10 -53 0 -65 22 -258 491 -39 97 -79 186 -88 199 -15 23 -16 22
-56 -71z"/>
<path d="M1309 1133 c0 -4 -4 -152 -8 -328 -7 -333 -12 -365 -51 -365 -10 0
-22 -4 -25 -10 -4 -6 37 -10 115 -10 78 0 119 4 115 10 -3 6 -17 10 -30 10
-13 0 -29 8 -34 18 -9 16 -31 326 -31 431 l0 46 183 -181 c286 -283 348 -339
358 -322 4 8 13 154 18 325 6 172 14 319 17 328 4 8 18 22 33 30 24 13 16 14
-94 14 -107 0 -117 -1 -90 -13 59 -26 60 -28 63 -280 l3 -231 -224 230 c-215
221 -316 316 -318 298z"/>
<path d="M2233 1124 c4 -4 17 -12 29 -18 12 -6 26 -26 31 -46 13 -50 3 -570
-12 -598 -6 -12 -21 -22 -32 -22 -11 0 -17 -4 -14 -10 4 -6 60 -10 136 -10 84
0 128 4 124 10 -3 6 -17 10 -30 10 -47 0 -50 22 -50 343 l0 299 28 24 28 24
-122 0 c-67 0 -119 -3 -116 -6z"/>
<path d="M2615 1120 c3 -5 15 -10 26 -10 46 0 54 -17 279 -553 36 -85 67 -146
74 -144 6 2 81 156 166 342 115 251 161 342 178 351 43 21 35 24 -69 23 -82 0
-98 -3 -76 -11 15 -5 27 -13 27 -18 0 -26 -174 -477 -190 -494 -12 -12 -58
101 -146 357 -49 144 -50 147 -30 147 8 0 18 5 21 10 4 6 -42 10 -130 10 -88
0 -134 -4 -130 -10z"/>
<path d="M3532 1115 c15 -9 29 -26 32 -42 11 -59 17 -432 8 -518 -9 -81 -13
-91 -38 -112 l-29 -23 216 0 216 0 6 32 c3 18 9 48 13 66 8 39 -7 43 -26 6
-20 -37 -61 -54 -130 -54 -51 0 -65 4 -85 25 -24 23 -25 30 -25 149 l0 124 50
7 c89 12 149 -13 151 -64 l1 -26 8 25 c4 14 8 48 9 75 l1 50 -110 -3 -110 -4
0 79 c0 44 -3 101 -6 127 l-7 46 84 0 c93 0 132 -14 137 -48 6 -39 19 -24 25
30 5 36 3 54 -6 60 -6 4 -102 8 -212 7 -180 0 -197 -1 -173 -14z"/>
<path d="M4200 1117 c22 -8 37 -21 41 -37 11 -41 10 -561 -2 -602 -7 -27 -15
-38 -29 -38 -11 0 -20 -4 -20 -10 0 -6 50 -10 131 -10 84 0 128 4 124 10 -3 6
-14 10 -24 10 -38 0 -46 27 -46 154 l0 121 33 3 c28 3 40 -3 75 -40 23 -24 72
-82 109 -130 37 -48 82 -95 100 -104 22 -12 62 -19 123 -21 l90 -3 -50 23
c-53 26 -176 146 -254 250 l-43 57 40 44 c49 53 69 91 78 144 9 60 -24 124
-84 160 -46 27 -50 27 -237 29 -161 3 -185 1 -155 -10z m273 -41 c62 -26 82
-59 85 -145 7 -134 -22 -171 -134 -171 l-54 0 0 165 0 165 35 0 c20 0 50 -6
68 -14z"/>
<path d="M5627 1118 c12 -6 25 -18 30 -27 11 -23 16 -548 6 -596 -6 -26 -17
-44 -31 -51 -44 -22 -33 -24 109 -24 97 0 139 3 129 10 -8 5 -25 10 -36 10
-42 0 -47 41 -47 339 0 152 4 287 7 299 4 12 19 29 34 37 25 13 17 14 -98 14
-95 0 -120 -3 -103 -11z"/>
<path d="M6116 1124 c12 -3 30 -14 40 -26 18 -19 19 -42 19 -317 0 -303 -4
-341 -40 -341 -7 0 -17 -5 -21 -11 -5 -8 61 -10 237 -7 240 4 245 4 294 30 72
37 136 98 170 159 28 51 30 60 30 169 0 102 -3 120 -24 160 -38 71 -63 100
-110 128 -75 44 -138 53 -386 57 -126 2 -220 1 -209 -1z m405 -59 c73 -26 131
-75 169 -146 33 -61 35 -69 34 -159 -1 -116 -15 -169 -56 -216 -54 -61 -122
-87 -233 -86 -81 1 -122 21 -130 65 -9 48 -1 540 9 556 11 17 141 8 207 -14z"/>
<path d="M7837 1119 c23 -7 35 -18 40 -37 5 -15 8 -155 8 -312 0 -292 -5 -330
-40 -330 -7 0 -17 -5 -21 -11 -5 -8 60 -10 232 -7 l239 3 66 31 c80 38 130 86
169 164 28 55 30 68 30 163 0 96 -2 109 -31 165 -73 148 -179 183 -549 181
-126 -1 -166 -3 -143 -10z m333 -40 c122 -19 210 -89 251 -198 18 -48 20 -70
15 -146 -7 -114 -22 -161 -66 -205 -50 -50 -128 -73 -230 -68 -67 3 -83 7
-102 26 -23 22 -23 25 -23 295 0 149 3 280 7 290 9 20 51 22 148 6z"/>
<path d="M9177 1116 c21 -9 35 -25 40 -43 4 -15 8 -154 8 -308 -1 -285 -6
-325 -40 -325 -7 0 -17 -5 -21 -11 -5 -8 60 -10 232 -7 l239 4 60 29 c134 65
198 170 199 331 0 83 -2 96 -32 157 -40 81 -96 128 -191 159 -58 18 -94 22
-296 25 -208 3 -227 2 -198 -11z m405 -58 c111 -51 170 -131 187 -253 21 -147
-28 -262 -134 -318 -30 -15 -63 -22 -130 -24 -77 -4 -95 -1 -122 16 l-33 21 0
288 c0 159 3 292 8 296 16 17 169 -1 224 -26z"/>
<path d="M10142 1114 c15 -8 31 -27 35 -42 5 -15 8 -153 8 -307 0 -295 -4
-325 -45 -325 -11 0 -20 -4 -20 -10 0 -6 78 -10 213 -10 l214 0 11 51 c19 81
16 86 -26 41 -38 -41 -40 -42 -105 -42 -36 0 -73 3 -82 6 -33 13 -45 59 -45
178 l0 115 56 7 c80 10 133 -8 141 -46 9 -49 23 -23 23 43 l0 62 -110 -3 -110
-4 0 126 0 126 69 0 c86 0 129 -15 143 -49 11 -25 12 -24 21 27 8 43 7 56 -4
63 -8 5 -104 9 -214 8 -183 0 -198 -1 -173 -15z"/>
<path d="M12166 1123 c12 -2 30 -13 40 -25 18 -19 19 -42 19 -317 0 -303 -4
-341 -40 -341 -7 0 -17 -4 -20 -10 -4 -6 44 -10 136 -10 87 0 139 4 134 9 -6
5 -21 11 -35 13 -41 5 -50 39 -50 196 l0 142 191 0 191 0 -7 -132 c-8 -162
-18 -208 -45 -208 -11 0 -20 -4 -20 -10 0 -6 52 -10 136 -10 87 0 133 4 129
10 -3 6 -17 10 -29 10 -48 0 -51 14 -54 304 -4 320 -1 350 36 371 25 13 16 14
-108 14 -119 0 -131 -2 -101 -13 19 -7 38 -22 42 -33 4 -12 11 -71 15 -132 l7
-111 -192 0 -191 0 0 118 c0 122 5 138 45 160 15 9 -12 11 -115 10 -74 0 -125
-3 -114 -5z"/>
<path d="M13183 1118 c16 -6 30 -20 35 -36 4 -15 7 -155 7 -312 0 -303 -4
-330 -47 -330 -15 0 -19 -3 -12 -10 7 -7 62 -9 145 -8 97 2 125 6 102 12 -58
15 -58 16 -61 310 -4 321 -1 350 36 371 25 13 16 14 -103 14 -99 0 -123 -3
-102 -11z"/>
<path d="M13693 1118 c16 -6 30 -20 35 -36 9 -36 9 -579 -1 -614 -5 -19 -14
-28 -27 -28 -11 0 -20 -4 -20 -10 0 -6 81 -10 224 -10 255 0 237 -8 235 95 -1
35 -3 43 -8 26 -13 -48 -54 -66 -148 -65 -69 0 -88 3 -98 18 -17 23 -28 220
-24 425 l4 163 28 24 28 24 -128 -1 c-98 0 -122 -3 -100 -11z"/>
<path d="M14365 1106 l30 -24 3 -260 c4 -300 -3 -366 -46 -385 -22 -10 10 -12
182 -15 160 -2 213 1 222 10 7 7 15 37 19 67 l7 54 -39 -41 c-39 -42 -41 -42
-110 -42 -55 0 -76 4 -94 19 -23 18 -24 25 -24 144 0 69 3 128 6 132 4 3 31 9
61 12 66 7 128 -15 128 -46 0 -12 4 -21 9 -21 9 0 21 57 21 103 0 26 -3 28
-27 23 -16 -2 -67 -8 -115 -11 l-88 -7 0 131 0 131 89 0 c94 0 112 -7 126 -50
11 -34 25 -11 25 40 0 34 -4 50 -16 54 -9 3 -102 6 -207 6 l-192 0 30 -24z"/>
</g>
</svg>
