<?xml version="1.0" standalone="no"?>
<!DOCTYPE svg PUBLIC "-//W3C//DTD SVG 20010904//EN"
 "http://www.w3.org/TR/2001/REC-SVG-20010904/DTD/svg10.dtd">
<svg version="1.0" xmlns="http://www.w3.org/2000/svg"
 width="335.000000pt" height="317.000000pt" viewBox="0 0 335.000000 317.000000"
 preserveAspectRatio="xMidYMid meet">
<metadata>
Created by potrace 1.16, written by Peter Selinger 2001-2019
</metadata>
<g transform="translate(0.000000,317.000000) scale(0.100000,-0.100000)"
fill="#000000" stroke="none">
<path d="M1576 3070 c-19 -17 -38 -44 -41 -60 l-7 -30 -219 0 -219 0 0 -330
c0 -379 7 -434 71 -568 47 -97 130 -188 226 -246 80 -48 217 -98 268 -98 60 0
208 58 292 114 119 80 194 182 244 333 22 67 23 86 27 433 l4 362 -220 0 -220
0 -7 30 c-3 16 -22 43 -41 60 -28 24 -44 30 -79 30 -35 0 -51 -6 -79 -30z m99
-10 c4 -11 10 -18 15 -15 4 3 13 -2 19 -9 19 -22 -7 -58 -31 -45 -25 13 -24
-5 2 -31 l20 -20 -20 0 c-11 0 -20 -5 -20 -11 0 -6 7 -9 15 -6 8 4 17 2 20 -2
3 -5 -2 -11 -10 -15 -19 -7 -21 -75 -2 -77 6 -1 24 -1 40 -1 23 1 27 -3 27
-29 0 -26 -3 -28 -29 -25 -16 2 -35 -1 -43 -5 -7 -5 -9 -9 -5 -9 4 0 3 -9 -3
-20 -13 -24 -30 -18 -30 11 0 20 -6 22 -52 21 -24 -1 -28 3 -28 28 0 25 4 29
28 28 49 -1 52 1 52 36 0 21 -6 36 -16 40 -20 8 -8 26 14 20 9 -2 7 0 -4 7
-21 11 -22 11 -3 30 24 24 25 44 2 31 -11 -7 -21 -6 -30 3 -20 21 -16 41 12
53 14 6 25 16 25 22 0 18 29 10 35 -10z m2 -399 c10 9 13 8 13 -1 0 -7 7 -10
15 -7 8 4 17 2 20 -3 3 -5 12 -7 20 -3 8 3 15 0 15 -6 0 -6 7 -11 15 -11 8 0
15 -4 15 -10 0 -5 7 -10 16 -10 8 0 12 -4 9 -10 -3 -5 1 -10 9 -10 9 0 16 -6
16 -13 0 -7 9 -19 20 -27 11 -8 20 -22 20 -32 0 -10 4 -18 10 -18 5 0 7 -7 4
-15 -4 -8 -1 -15 6 -15 10 0 10 -3 0 -15 -8 -9 -8 -15 -2 -15 11 0 10 -38 -1
-57 -4 -6 -1 -14 5 -16 10 -4 10 -8 -1 -15 -7 -5 -10 -15 -7 -21 4 -6 0 -11
-10 -11 -13 0 -14 -3 -4 -15 10 -12 9 -15 -5 -15 -11 0 -15 -5 -11 -15 3 -9 0
-15 -9 -15 -8 0 -15 -5 -15 -11 0 -14 -25 -39 -39 -39 -6 0 -11 -5 -11 -11 0
-6 -7 -9 -15 -5 -9 3 -15 0 -15 -9 0 -8 -6 -12 -14 -9 -8 3 -17 1 -20 -5 -4
-6 -13 -8 -21 -4 -8 3 -15 0 -15 -7 0 -6 -5 -8 -12 -3 -7 4 -25 8 -40 8 -15 0
-30 4 -33 7 -4 4 -13 4 -21 1 -8 -3 -14 0 -14 7 0 7 -7 10 -15 6 -9 -3 -15 0
-15 9 0 9 -6 12 -15 9 -9 -4 -15 0 -15 10 0 10 -5 13 -17 9 -12 -5 -15 -2 -10
10 3 9 2 17 -4 17 -16 0 -41 29 -34 40 3 5 -1 10 -10 10 -11 0 -15 5 -12 15 4
8 2 17 -3 20 -5 3 -7 12 -3 20 3 9 -1 15 -8 15 -10 0 -10 3 -1 12 8 8 9 15 1
25 -9 10 -8 13 1 13 10 0 10 3 1 14 -8 9 -8 16 -2 20 6 4 8 13 4 21 -3 8 0 15
6 15 6 0 8 7 5 15 -4 9 0 15 10 15 10 0 13 6 10 15 -4 8 -1 15 5 15 6 0 11 5
11 11 0 14 25 39 39 39 6 0 11 7 11 15 0 9 6 12 15 9 8 -4 15 -1 15 6 0 7 7
10 15 6 9 -3 15 1 15 11 0 13 3 13 15 3 11 -9 15 -10 15 -1 0 8 8 10 20 6 13
-4 20 -2 20 6 0 10 3 10 12 1 8 -8 15 -9 25 -1z"/>
<path d="M242 1572 l-34 -3 4 -167 c4 -188 13 -219 70 -243 48 -20 146 -18
184 5 60 36 68 63 72 244 l4 162 -41 0 -41 0 0 -154 c0 -140 -2 -156 -21 -180
-16 -21 -29 -26 -64 -26 -35 0 -48 5 -64 26 -19 24 -21 40 -21 180 0 84 -3
154 -7 156 -5 2 -23 2 -41 0z"/>
<path d="M580 1331 l0 -181 31 0 30 0 -3 120 c-2 66 -1 120 2 120 3 0 34 -54
69 -120 l63 -120 44 0 44 0 0 180 0 180 -30 0 -30 0 0 -127 0 -128 -69 125
-68 125 -42 3 -41 3 0 -180z"/>
<path d="M900 1330 l0 -180 35 0 35 0 0 180 0 180 -35 0 -35 0 0 -180z"/>
<path d="M990 1503 c0 -4 26 -85 57 -181 l58 -173 39 3 39 3 54 160 c29 88 56
168 59 178 4 14 -1 17 -29 17 l-34 0 -42 -135 c-24 -74 -44 -135 -46 -135 -2
0 -23 61 -46 135 l-42 135 -34 0 c-18 0 -33 -3 -33 -7z"/>
<path d="M1320 1330 l0 -180 90 0 c89 0 90 0 90 25 0 22 -4 24 -57 27 l-58 3
0 50 0 50 58 3 c53 3 57 5 57 27 0 22 -4 24 -57 27 l-57 3 -4 43 -3 42 60 0
61 0 0 30 0 30 -90 0 -90 0 0 -180z"/>
<path d="M1540 1331 l0 -181 35 0 34 0 3 72 3 71 45 -71 c42 -69 46 -72 82
-72 21 0 38 2 38 4 0 3 -22 37 -50 77 l-50 72 29 18 c38 23 51 48 51 97 0 28
-7 45 -26 63 -22 21 -37 24 -110 28 l-84 3 0 -181z"/>
<path d="M1848 1494 c-35 -19 -48 -43 -48 -92 0 -45 15 -63 85 -100 55 -30 66
-53 38 -84 -15 -17 -26 -19 -64 -15 -45 6 -47 5 -51 -23 -4 -26 -1 -29 34 -34
83 -13 153 28 165 97 8 49 -14 80 -77 112 -64 32 -78 57 -49 86 17 17 29 20
60 16 28 -4 39 -1 39 8 0 7 3 20 6 29 5 14 -3 16 -52 16 -33 -1 -71 -7 -86
-16z"/>
<path d="M2040 1330 l0 -180 30 0 30 0 0 180 0 180 -30 0 -30 0 0 -180z"/>
<path d="M2160 1330 l0 -180 78 0 c129 0 189 51 199 168 4 46 1 69 -15 106
-28 63 -77 85 -184 86 l-78 0 0 -180z m176 97 c23 -20 28 -34 31 -83 5 -76
-18 -118 -76 -135 -68 -20 -71 -15 -71 121 l0 120 44 0 c33 0 52 -6 72 -23z"/>
<path d="M2502 1330 l-60 -180 33 0 c29 0 35 4 45 35 l12 36 66 -3 c65 -3 66
-3 76 -35 8 -30 13 -33 45 -33 l37 0 -61 180 -60 180 -37 0 -36 0 -60 -180z"/>
<path d="M2780 1330 l0 -180 78 0 c129 0 189 51 199 168 4 46 1 69 -15 106
-28 63 -77 85 -184 86 l-78 0 0 -180z m176 97 c23 -20 28 -34 31 -83 5 -76
-18 -118 -76 -135 -68 -20 -71 -15 -71 121 l0 120 44 0 c33 0 52 -6 72 -23z"/>
<path d="M315 948 c-7 -33 -95 -647 -95 -664 0 -10 15 -14 60 -14 71 0 61 -24
90 230 32 293 28 281 61 154 16 -60 48 -170 72 -244 l43 -135 64 -3 65 -3 39
133 c22 73 54 185 72 248 37 133 30 147 69 -145 35 -261 23 -235 101 -235 l65
0 -6 33 c-5 28 -56 376 -87 590 l-11 77 -73 0 -73 0 -56 -177 c-66 -210 -81
-258 -90 -298 -6 -27 -10 -19 -34 65 -15 52 -49 166 -76 253 l-48 157 -73 0
c-68 0 -74 -2 -79 -22z"/>
<path d="M2235 873 c-77 -28 -121 -67 -157 -141 -31 -62 -33 -73 -33 -172 0
-88 4 -113 23 -155 48 -104 107 -140 232 -140 94 0 141 18 198 74 56 57 77
115 80 228 4 119 -12 184 -61 240 -64 73 -184 101 -282 66z m115 -93 c11 0 35
-14 55 -31 80 -70 87 -244 14 -333 -56 -68 -158 -70 -213 -6 -70 83 -61 267
16 338 27 25 75 43 96 36 8 -2 22 -4 32 -4z"/>
<path d="M1191 633 c-44 -137 -89 -274 -100 -306 l-20 -58 56 3 56 3 21 60 21
60 109 0 108 0 20 -62 19 -63 59 0 c33 0 60 3 60 8 0 4 -46 141 -101 305
l-102 297 -63 0 -63 0 -80 -247z m178 -11 c19 -59 36 -115 39 -124 4 -16 -4
-18 -61 -18 -102 0 -100 -4 -61 115 19 58 34 111 34 120 0 39 18 5 49 -93z"/>
<path d="M1560 873 c0 -5 39 -93 87 -198 l88 -190 3 -107 4 -108 49 0 49 0 0
103 0 102 71 150 c39 83 81 174 94 203 l24 52 -58 0 -59 0 -58 -134 c-32 -74
-61 -133 -64 -131 -3 2 -30 62 -60 134 l-55 131 -57 0 c-32 0 -58 -3 -58 -7z"/>
<path d="M2680 575 l0 -305 55 0 54 0 3 127 3 128 80 -127 80 -127 69 -1 68 0
-17 28 c-10 15 -51 75 -91 134 l-73 107 35 11 c82 27 125 113 104 207 -21 96
-78 123 -257 123 l-113 0 0 -305z m209 204 c38 -13 51 -35 51 -84 0 -24 -8
-43 -23 -59 -24 -24 -97 -43 -117 -31 -6 3 -10 45 -10 96 l0 89 34 0 c18 0 47
-5 65 -11z"/>
</g>
</svg>
